<?xml version="1.0" encoding="utf-8"?>
<!-- Generator: Adobe Illustrator 16.0.0, SVG Export Plug-In . SVG Version: 6.00 Build 0)  -->
<!DOCTYPE svg PUBLIC "-//W3C//DTD SVG 1.1//EN" "http://www.w3.org/Graphics/SVG/1.1/DTD/svg11.dtd">
<svg version="1.1" id="Layer_1" xmlns="http://www.w3.org/2000/svg" xmlns:xlink="http://www.w3.org/1999/xlink" x="0px" y="0px"
	 width="1508.8px" height="130.9px" viewBox="-0.7 359.6 1508.8 130.9" enable-background="new -0.7 359.6 1508.8 130.9"
	 xml:space="preserve">
<g id="Layer_1_1_">
	<g>
		<path fill="none" stroke="#CCCBCB" stroke-width="0.5" stroke-miterlimit="10" d="M565.7,493.7"/>
	</g>
	<rect x="63.3" y="413.7" fill="#434850" width="69.4" height="76.8"/>
	<rect x="184.1" y="391.2" fill="#434850" width="57.7" height="99.3"/>
	<rect x="256.8" y="432.7" fill="#434850" width="28.8" height="57.8"/>
	<rect x="289.3" y="432.7" fill="#434850" width="28.8" height="57.8"/>
	<rect x="453.3" y="381.3" fill="#434850" width="19.4" height="109.2"/>
	<rect x="483.1" y="381.3" fill="#434850" width="19.4" height="109.2"/>
	<rect x="512.7" y="432.7" fill="#434850" width="53" height="57.8"/>
	<polygon fill="#434850" points="565.7,412.7 512.7,412.7 507.8,433 571.8,433 	"/>
	<rect x="583.2" y="461.1" fill="#434850" width="53" height="28.9"/>
	<polygon fill="#434850" points="635.5,442.1 582.5,442.1 577.7,462.4 641.7,462.4 	"/>
	<rect x="68.2" y="476" fill="#FBF8CE" width="11.9" height="11.8"/>
	<rect x="92" y="476" fill="#FBF8CE" width="11.9" height="11.8"/>
	<rect x="115.8" y="476" fill="#FBF8CE" width="11.9" height="11.8"/>
	<rect x="68.2" y="449.8" fill="#FBF8CE" width="11.9" height="11.8"/>
	<rect x="92" y="449.8" fill="#FBF8CE" width="11.9" height="11.8"/>
	<rect x="115.8" y="449.8" fill="#FBF8CE" width="11.9" height="11.8"/>
	<rect x="68.2" y="420.9" fill="#FBF8CE" width="11.9" height="11.8"/>
	<rect x="92" y="420.9" fill="#FBF8CE" width="11.9" height="11.8"/>
	<rect x="115.8" y="420.9" fill="#FBF8CE" width="11.9" height="11.8"/>
	<g>
		<rect x="259.3" y="435.5" fill="#FBF8CE" width="3.4" height="5"/>
		<rect x="269.5" y="435.5" fill="#FBF8CE" width="3.4" height="5"/>
		<rect x="279.7" y="435.5" fill="#FBF8CE" width="3.4" height="5"/>
	</g>
	<g>
		<rect x="259.3" y="448.8" fill="#FBF8CE" width="3.4" height="5"/>
		<rect x="269.5" y="448.8" fill="#FBF8CE" width="3.4" height="5"/>
		<rect x="279.7" y="448.8" fill="#FBF8CE" width="3.4" height="5"/>
	</g>
	<g>
		<rect x="259.3" y="462.1" fill="#FBF8CE" width="3.4" height="5"/>
		<rect x="269.5" y="462.1" fill="#FBF8CE" width="3.4" height="5"/>
		<rect x="279.7" y="462.1" fill="#FBF8CE" width="3.4" height="5"/>
	</g>
	<g>
		<rect x="259.3" y="475.4" fill="#FBF8CE" width="3.4" height="5"/>
		<rect x="269.5" y="475.4" fill="#FBF8CE" width="3.4" height="5"/>
		<rect x="279.7" y="475.4" fill="#FBF8CE" width="3.4" height="5"/>
	</g>
	<polygon fill="#434850" points="52.4,413.7 98,372.3 141,413.7 	"/>
	<polygon fill="#434850" points="253,432.7 270.4,412 287.7,432.7 	"/>
	<polygon fill="#434850" points="286.4,432.7 303.7,412 321.1,432.7 	"/>
	<rect x="205.8" y="470.8" fill="#FBF8CE" width="14.4" height="19.7"/>
	<rect x="263.1" y="486.2" fill="#F7EFBF" width="14.4" height="4.399"/>
	<rect x="296.8" y="475.4" fill="#F7EFBF" width="14.4" height="15.1"/>
	<rect x="649.9" y="391.2" fill="#434850" width="34.699" height="99.3"/>
	<polygon fill="#434850" points="649.9,391.2 667.3,370.5 684.6,391.2 	"/>
	<rect x="660.1" y="407.5" fill="#F7EFBF" width="14.4" height="25.2"/>
	<rect x="660.1" y="465.3" fill="#F7EFBF" width="14.4" height="25.2"/>
	<line fill="none" stroke="#434850" stroke-miterlimit="10" x1="667.3" y1="407.5" x2="667.3" y2="432.7"/>
	<line fill="none" stroke="#434850" stroke-miterlimit="10" x1="654.7" y1="420.1" x2="679.9" y2="420.1"/>
	<rect x="519.3" y="440" fill="#F7EFBF" width="14.4" height="25.2"/>
	<line fill="none" stroke="#434850" stroke-miterlimit="10" x1="526.6" y1="440" x2="526.6" y2="465.2"/>
	<line fill="none" stroke="#434850" stroke-miterlimit="10" x1="513.9" y1="452.6" x2="539.2" y2="452.6"/>
	<rect x="544.6" y="440" fill="#F7EFBF" width="14.4" height="25.2"/>
	<rect x="524.5" y="477.9" fill="#F7EFBF" width="30.6" height="12.8"/>
	<rect x="589" y="477.9" fill="#F7EFBF" width="41.5" height="12.8"/>
	<rect x="590" y="468" fill="#F7EFBF" width="5" height="5.3"/>
	<rect x="601.8" y="468.2" fill="#F7EFBF" width="5" height="5.3"/>
	<rect x="613.6" y="468.2" fill="#F7EFBF" width="5" height="5.3"/>
	<rect x="625.4" y="468.2" fill="#F7EFBF" width="5" height="5.3"/>
	<line fill="none" stroke="#434850" stroke-miterlimit="10" x1="551.8" y1="440" x2="551.8" y2="465.2"/>
	<line fill="none" stroke="#434850" stroke-miterlimit="10" x1="539.2" y1="452.6" x2="564.4" y2="452.6"/>
	<rect x="193.1" y="401.1" fill="#FBF8CE" width="14.4" height="25.2"/>
	<line fill="none" stroke="#434850" stroke-miterlimit="10" x1="200.4" y1="401.1" x2="200.4" y2="426.3"/>
	<line fill="none" stroke="#434850" stroke-miterlimit="10" x1="187.7" y1="413.7" x2="213" y2="413.7"/>
	<rect x="219.6" y="401.1" fill="#FBF8CE" width="14.4" height="25.2"/>
	<line fill="none" stroke="#434850" stroke-miterlimit="10" x1="226.8" y1="401.1" x2="226.8" y2="426.3"/>
	<line fill="none" stroke="#434850" stroke-miterlimit="10" x1="214.2" y1="413.7" x2="239.4" y2="413.7"/>
	<rect x="458.9" y="387.6" fill="#F7EFBF" width="8.199" height="14.4"/>
	<line fill="none" stroke="#434850" stroke-miterlimit="10" x1="463" y1="387.6" x2="463" y2="402"/>
	<line fill="none" stroke="#434850" stroke-miterlimit="10" x1="455.8" y1="394.8" x2="470.2" y2="394.8"/>
	<rect x="458.9" y="412.9" fill="#F7EFBF" width="8.199" height="14.399"/>
	<line fill="none" stroke="#434850" stroke-miterlimit="10" x1="463" y1="412.9" x2="463" y2="427.3"/>
	<line fill="none" stroke="#434850" stroke-miterlimit="10" x1="455.8" y1="420.1" x2="470.2" y2="420.1"/>
	<rect x="458.9" y="438.2" fill="#F7EFBF" width="8.199" height="14.399"/>
	<line fill="none" stroke="#434850" stroke-miterlimit="10" x1="463" y1="438.2" x2="463" y2="452.6"/>
	<line fill="none" stroke="#434850" stroke-miterlimit="10" x1="455.8" y1="445.4" x2="470.2" y2="445.4"/>
	<rect x="458.9" y="463.5" fill="#F7EFBF" width="8.199" height="14.4"/>
	<line fill="none" stroke="#434850" stroke-miterlimit="10" x1="463" y1="463.5" x2="463" y2="477.9"/>
	<line fill="none" stroke="#434850" stroke-miterlimit="10" x1="455.8" y1="470.7" x2="470.2" y2="470.7"/>
	<rect x="488.6" y="463.6" fill="#F7EFBF" width="8.2" height="14.4"/>
	<line fill="none" stroke="#434850" stroke-miterlimit="10" x1="492.7" y1="463.6" x2="492.7" y2="478.1"/>
	<line fill="none" stroke="#434850" stroke-miterlimit="10" x1="485.5" y1="470.8" x2="500" y2="470.8"/>
	<rect x="488.6" y="438.2" fill="#F7EFBF" width="8.2" height="14.399"/>
	<line fill="none" stroke="#434850" stroke-miterlimit="10" x1="492.7" y1="438.2" x2="492.7" y2="452.6"/>
	<line fill="none" stroke="#434850" stroke-miterlimit="10" x1="485.5" y1="445.4" x2="500" y2="445.4"/>
	<rect x="488.6" y="412.7" fill="#F7EFBF" width="8.2" height="14.399"/>
	<line fill="none" stroke="#434850" stroke-miterlimit="10" x1="492.7" y1="412.7" x2="492.7" y2="427.1"/>
	<line fill="none" stroke="#434850" stroke-miterlimit="10" x1="485.5" y1="419.9" x2="500" y2="419.9"/>
	<rect x="488.6" y="387.2" fill="#F7EFBF" width="8.2" height="14.399"/>
	<line fill="none" stroke="#434850" stroke-miterlimit="10" x1="492.7" y1="387.2" x2="492.7" y2="401.6"/>
	<line fill="none" stroke="#434850" stroke-miterlimit="10" x1="485.5" y1="394.4" x2="500" y2="394.4"/>
	<rect x="219.6" y="437.2" fill="#FBF8CE" width="14.4" height="25.2"/>
	<line fill="none" stroke="#434850" stroke-miterlimit="10" x1="226.8" y1="437.2" x2="226.8" y2="462.4"/>
	<line fill="none" stroke="#434850" stroke-miterlimit="10" x1="214.2" y1="449.8" x2="239.4" y2="449.8"/>
	<rect x="293.9" y="436.9" fill="#FBF8CE" width="7.4" height="12.899"/>
	<line fill="none" stroke="#434850" stroke-miterlimit="10" x1="297.6" y1="436.9" x2="297.6" y2="449.8"/>
	<line fill="none" stroke="#434850" stroke-miterlimit="10" x1="291.1" y1="443.4" x2="304" y2="443.4"/>
	<rect x="306.8" y="436.9" fill="#FBF8CE" width="7.4" height="12.899"/>
	<line fill="none" stroke="#434850" stroke-miterlimit="10" x1="310.5" y1="436.9" x2="310.5" y2="449.8"/>
	<line fill="none" stroke="#434850" stroke-miterlimit="10" x1="304" y1="443.4" x2="316.9" y2="443.4"/>
	<rect x="306.8" y="457.3" fill="#FBF8CE" width="7.4" height="12.9"/>
	<line fill="none" stroke="#434850" stroke-miterlimit="10" x1="310.5" y1="457.3" x2="310.5" y2="470.2"/>
	<line fill="none" stroke="#434850" stroke-miterlimit="10" x1="304" y1="463.8" x2="316.9" y2="463.8"/>
	<rect x="293.9" y="457.3" fill="#F7EFBF" width="7.4" height="12.9"/>
	<g>
		<line fill="none" stroke="#434850" stroke-miterlimit="10" x1="297.6" y1="457.3" x2="297.6" y2="470.2"/>
	</g>
	<line fill="none" stroke="#434850" stroke-miterlimit="10" x1="291.1" y1="463.8" x2="304" y2="463.8"/>
	<rect x="193.1" y="437.2" fill="#FBF8CE" width="14.4" height="25.2"/>
	<line fill="none" stroke="#434850" stroke-miterlimit="10" x1="200.4" y1="437.2" x2="200.4" y2="462.4"/>
	<line fill="none" stroke="#434850" stroke-miterlimit="10" x1="187.7" y1="449.8" x2="213" y2="449.8"/>
	<line fill="none" x1="821" y1="560.2" x2="822.3" y2="560.9"/>
	<rect x="335.5" y="422.8" fill="#434850" width="2.4" height="67.8"/>
	<circle fill="#434850" cx="332.4" cy="418.2" r="9"/>
	<circle fill="#434850" cx="334.6" cy="407.8" r="5.9"/>
	<circle fill="#434850" cx="337.7" cy="420.8" r="6.6"/>
	<circle fill="#434850" cx="349.7" cy="417.1" r="9.2"/>
	<circle fill="#434850" cx="342.2" cy="409.5" r="7.5"/>
	<circle fill="#434850" cx="339.4" cy="403.5" r="6"/>
	<circle fill="#434850" cx="348.3" cy="408.1" r="6.1"/>
	<circle fill="#434850" cx="330" cy="416.2" r="6.6"/>
	<circle fill="#434850" cx="346.8" cy="421.7" r="4.6"/>
	<circle fill="#434850" cx="346.1" cy="422.8" r="6.3"/>
	<circle fill="#434850" cx="332.4" cy="409.2" r="11.1"/>
	<circle fill="#434850" cx="343.5" cy="421.3" r="11.1"/>
	<circle fill="#434850" cx="337.7" cy="420.9" r="11.1"/>
	<circle fill="#434850" cx="332.4" cy="422.8" r="11.1"/>
	<rect x="19.4" y="422.8" fill="#434850" width="2.4" height="67.8"/>
	<circle fill="#434850" cx="16.3" cy="418.2" r="9"/>
	<circle fill="#434850" cx="18.5" cy="407.8" r="5.9"/>
	<circle fill="#434850" cx="21.6" cy="420.8" r="6.6"/>
	<circle fill="#434850" cx="33.6" cy="417.1" r="9.2"/>
	<circle fill="#434850" cx="26.1" cy="409.5" r="7.5"/>
	<circle fill="#434850" cx="23.2" cy="403.5" r="6"/>
	<circle fill="#434850" cx="32.2" cy="408.1" r="6.1"/>
	<circle fill="#434850" cx="13.9" cy="416.2" r="6.6"/>
	<circle fill="#434850" cx="30.7" cy="421.7" r="4.6"/>
	<circle fill="#434850" cx="29.9" cy="422.8" r="6.3"/>
	<circle fill="#434850" cx="16.3" cy="409.2" r="11.1"/>
	<circle fill="#434850" cx="27.4" cy="421.3" r="11.1"/>
	<circle fill="#434850" cx="21.6" cy="420.9" r="11.1"/>
	<circle fill="#434850" cx="16.3" cy="422.8" r="11.1"/>
	<rect x="692.8" y="466.1" fill="#434850" width="1.4" height="24.5"/>
	<circle fill="#434850" cx="691.1" cy="463.4" r="5.2"/>
	<circle fill="#434850" cx="692.4" cy="457.5" r="3.4"/>
	<circle fill="#434850" cx="694.1" cy="464.9" r="3.8"/>
	<circle fill="#434850" cx="701.1" cy="462.8" r="5.3"/>
	<circle fill="#434850" cx="696.7" cy="458.4" r="4.4"/>
	<circle fill="#434850" cx="695.1" cy="455" r="3.5"/>
	<circle fill="#434850" cx="700.2" cy="457.6" r="3.5"/>
	<circle fill="#434850" cx="689.7" cy="462.3" r="3.8"/>
	<circle fill="#434850" cx="699.4" cy="465.5" r="2.7"/>
	<circle fill="#434850" cx="698.9" cy="466.1" r="3.7"/>
	<circle fill="#434850" cx="689" cy="460.8" r="6.4"/>
	<circle fill="#434850" cx="697.5" cy="468.7" r="6.4"/>
	<circle fill="#434850" cx="694.1" cy="465" r="6.4"/>
	<circle fill="#434850" cx="687.7" cy="468" r="6.4"/>
	<g>
		<rect x="1" y="472.4" fill="#434850" width="2.5" height="18"/>
		<polygon fill="#434850" points="1,472.5 2.3,471 3.6,472.5 		"/>
	</g>
	<g>
		<rect x="8.5" y="472.4" fill="#434850" width="2.5" height="18"/>
		<polygon fill="#434850" points="8.5,472.5 9.8,471 11.1,472.5 		"/>
	</g>
	<g>
		<rect x="16" y="472.4" fill="#434850" width="2.5" height="18"/>
		<polygon fill="#434850" points="16,472.5 17.3,471 18.6,472.5 		"/>
	</g>
	<g>
		<rect x="23.5" y="472.4" fill="#434850" width="2.5" height="18"/>
		<polygon fill="#434850" points="23.5,472.5 24.8,471 26,472.5 		"/>
	</g>
	<g>
		<rect x="31" y="472.4" fill="#434850" width="2.5" height="18"/>
		<polygon fill="#434850" points="31,472.5 32.3,471 33.5,472.5 		"/>
	</g>
	<g>
		<rect x="38.5" y="472.4" fill="#434850" width="2.5" height="18"/>
		<polygon fill="#434850" points="38.5,472.5 39.8,471 41,472.5 		"/>
	</g>
	<g>
		<rect x="46" y="472.4" fill="#434850" width="2.5" height="18"/>
		<polygon fill="#434850" points="46,472.5 47.3,471 48.5,472.5 		"/>
	</g>
	<g>
		<rect x="53.5" y="472.4" fill="#434850" width="2.5" height="18"/>
		<polygon fill="#434850" points="53.5,472.5 54.8,471 56,472.5 		"/>
	</g>
	<g>
		<rect x="61" y="472.4" fill="#434850" width="2.5" height="18"/>
		<polygon fill="#434850" points="61,472.5 62.2,471 63.5,472.5 		"/>
	</g>
	<rect x="-0.7" y="476" fill="#434850" width="68.6" height="2.4"/>
	<g>
		<g>
			<g>
				<polygon id="SVGID_42_" fill="#42474F" points="395.3,430.8 349.7,442.4 349.7,490.4 440.6,490.4 440.6,442.7 				"/>
			</g>
			<g>
				<defs>
					<polygon id="SVGID_1_" points="395.3,430.8 349.7,442.4 349.7,490.4 440.6,490.4 440.6,442.7 					"/>
				</defs>
				<clipPath id="SVGID_2_">
					<use xlink:href="#SVGID_1_"  overflow="visible"/>
				</clipPath>
				<rect x="351.7" y="440.5" clip-path="url(#SVGID_2_)" fill="#F7EFBF" width="87.3" height="1.3"/>
			</g>
		</g>
		<rect x="349.7" y="483.2" fill="#F7EFBF" width="90.899" height="2.3"/>
		<rect x="353.5" y="451" fill="#F7EFBF" width="2.7" height="29.4"/>
		<rect x="365.1" y="451" fill="#F7EFBF" width="2.7" height="29.4"/>
		<rect x="376.7" y="451" fill="#F7EFBF" width="2.7" height="29.4"/>
		<rect x="388.2" y="451" fill="#F7EFBF" width="2.7" height="29.4"/>
		<rect x="353.5" y="446.6" fill="#F7EFBF" width="83.7" height="2.7"/>
		<rect x="399.8" y="451" fill="#F7EFBF" width="2.7" height="29.4"/>
		<rect x="411.4" y="451" fill="#F7EFBF" width="2.699" height="29.4"/>
		<rect x="422.9" y="451" fill="#F7EFBF" width="2.699" height="29.4"/>
		<rect x="434.5" y="451" fill="#F7EFBF" width="2.7" height="29.4"/>
		<rect x="351.7" y="443.1" fill="#F7EFBF" width="87.3" height="1.301"/>
	</g>
	<polygon fill="#434850" points="774.4,418.5 763,485.9 768.6,485.9 	"/>
	<polygon fill="#434850" points="774.6,418.5 786,485.9 780.4,485.9 	"/>
	<rect x="682.6" y="481.7" fill="#434850" width="169.5" height="8.899"/>
	<g id="Wheel">
		<circle fill="none" stroke="#434850" stroke-miterlimit="10" cx="774.5" cy="418.5" r="44.2"/>
		<circle fill="none" stroke="#434850" stroke-width="2" stroke-miterlimit="10" cx="774.5" cy="418.5" r="52.9"/>
		<g>
			<circle fill="#434850" cx="774.5" cy="362.6" r="3"/>
			<circle fill="#434850" cx="765.8" cy="363.3" r="3"/>
			<circle fill="#434850" cx="757.2" cy="365.3" r="3"/>
			<circle fill="#434850" cx="749.1" cy="368.7" r="3"/>
			<circle fill="#434850" cx="741.7" cy="373.3" r="3"/>
			<circle fill="#434850" cx="735" cy="379" r="3"/>
			<circle fill="#434850" cx="729.3" cy="385.6" r="3"/>
			<path fill="#434850" d="M726.1,390.5c1.5,0.7,2,2.5,1.301,4c-0.7,1.5-2.5,2-4,1.3s-2-2.5-1.301-4
				C722.8,390.3,724.6,389.7,726.1,390.5z"/>
			<path fill="#434850" d="M722.3,398.4c1.601,0.5,2.4,2.199,1.9,3.699c-0.5,1.601-2.2,2.4-3.7,1.9c-1.6-0.5-2.4-2.2-1.9-3.7
				C719.1,398.7,720.7,397.9,722.3,398.4z"/>
			<path fill="#434850" d="M719.8,406.8c1.601,0.3,2.7,1.8,2.5,3.4c-0.3,1.6-1.8,2.7-3.399,2.5c-1.601-0.3-2.7-1.8-2.5-3.4
				C716.7,407.7,718.2,406.6,719.8,406.8z"/>
			<circle fill="#434850" cx="718.6" cy="418.5" r="3"/>
			<circle fill="#434850" cx="719.3" cy="427.2" r="3"/>
			<circle fill="#434850" cx="721.4" cy="435.7" r="3"/>
			<path fill="#434850" d="M723.4,441.2c1.5-0.7,3.199-0.2,4,1.3c0.699,1.5,0.199,3.2-1.301,4c-1.5,0.7-3.199,0.2-4-1.3
				C721.4,443.7,721.9,441.9,723.4,441.2z"/>
			<path fill="#434850" d="M727.6,448.9c1.301-1,3.2-0.7,4.101,0.699c1,1.301,0.7,3.2-0.7,4.101c-1.3,1-3.2,0.7-4.1-0.7
				C726,451.7,726.3,449.9,727.6,448.9z"/>
			<path fill="#434850" d="M732.9,455.9c1.199-1.2,3-1.2,4.199,0c1.2,1.199,1.2,3,0,4.199c-1.199,1.2-3,1.2-4.199,0
				C731.8,458.9,731.8,457,732.9,455.9z"/>
			<circle fill="#434850" cx="741.7" cy="463.7" r="3"/>
			<circle fill="#434850" cx="749.1" cy="468.2" r="3"/>
			<path fill="#434850" d="M754.4,470.7c0.5-1.601,2.199-2.4,3.699-1.9c1.601,0.5,2.4,2.2,1.9,3.7c-0.5,1.6-2.2,2.4-3.7,1.9
				S753.9,472.2,754.4,470.7z"/>
			<circle fill="#434850" cx="765.8" cy="473.6" r="3"/>
			<path fill="#434850" d="M771.5,474.3c0-1.6,1.3-3,3-3c1.6,0,3,1.3,3,3c0,1.601-1.3,3-3,3C772.9,477.3,771.5,476,771.5,474.3z"/>
			<path fill="#434850" d="M780.3,474.1c-0.3-1.6,0.8-3.1,2.5-3.399c1.601-0.3,3.101,0.8,3.4,2.5c0.3,1.6-0.8,3.1-2.5,3.399
				C782.1,476.8,780.6,475.7,780.3,474.1z"/>
			<path fill="#434850" d="M789,472.5c-0.5-1.6,0.3-3.2,1.9-3.7c1.6-0.5,3.199,0.3,3.699,1.9c0.5,1.6-0.3,3.2-1.899,3.7
				C791.1,474.9,789.5,474.1,789,472.5z"/>
			<path fill="#434850" d="M797.2,469.6c-0.7-1.5-0.2-3.199,1.3-4c1.5-0.699,3.2-0.199,4,1.301c0.7,1.5,0.2,3.199-1.3,4
				C799.8,471.6,798,471,797.2,469.6z"/>
			<path fill="#434850" d="M804.9,465.4c-1-1.301-0.7-3.2,0.699-4.101c1.301-1,3.2-0.7,4.101,0.7c1,1.3,0.7,3.2-0.7,4.1
				C807.8,467,805.9,466.7,804.9,465.4z"/>
			<circle fill="#434850" cx="814" cy="458" r="3"/>
			<path fill="#434850" d="M818,453.7c-1.3-1-1.6-2.8-0.7-4.101c1-1.3,2.8-1.6,4.101-0.699c1.3,1,1.6,2.8,0.699,4.1
				C821.1,454.4,819.3,454.7,818,453.7z"/>
			<path fill="#434850" d="M822.9,446.5c-1.5-0.7-2-2.5-1.301-4c0.7-1.5,2.5-2,4-1.3s2,2.5,1.301,4
				C826.2,446.6,824.4,447.2,822.9,446.5z"/>
			<path fill="#434850" d="M826.7,438.6c-1.601-0.5-2.4-2.199-1.9-3.699c0.5-1.601,2.2-2.4,3.7-1.9c1.6,0.5,2.4,2.2,1.9,3.7
				S828.3,439.1,826.7,438.6z"/>
			<path fill="#434850" d="M829.2,430.1c-1.601-0.3-2.7-1.8-2.5-3.399c0.3-1.601,1.8-2.7,3.399-2.5c1.601,0.3,2.7,1.8,2.5,3.399
				C832.4,429.3,830.8,430.4,829.2,430.1z"/>
			<path fill="#434850" d="M830.4,421.4c-1.601,0-3-1.301-3-3c0-1.601,1.3-3,3-3c1.6,0,3,1.3,3,3C833.3,420.1,832,421.4,830.4,421.4
				z"/>
			<path fill="#434850" d="M830.1,412.7c-1.6,0.3-3.1-0.8-3.399-2.5c-0.3-1.601,0.8-3.101,2.5-3.4c1.6-0.3,3.1,0.8,3.399,2.5
				C832.9,410.9,831.8,412.4,830.1,412.7z"/>
			<path fill="#434850" d="M828.5,404c-1.6,0.5-3.2-0.3-3.7-1.9c-0.5-1.6,0.3-3.199,1.9-3.699c1.6-0.5,3.2,0.3,3.7,1.899
				C831,401.9,830.1,403.5,828.5,404z"/>
			<path fill="#434850" d="M825.6,395.8c-1.5,0.7-3.199,0.2-4-1.3c-0.8-1.5-0.199-3.2,1.301-4c1.5-0.7,3.199-0.2,4,1.3
				C827.7,393.2,827.1,395,825.6,395.8z"/>
			<path fill="#434850" d="M821.4,388c-1.301,1-3.2,0.7-4.101-0.7c-1-1.3-0.7-3.2,0.7-4.1c1.3-1,3.2-0.7,4.1,0.7
				C823.1,385.2,822.8,387.1,821.4,388z"/>
			<path fill="#434850" d="M816.1,381.1c-1.199,1.2-3,1.2-4.199,0c-1.2-1.199-1.2-3,0-4.199c1.199-1.2,3-1.2,4.199,0
				C817.3,378,817.3,379.9,816.1,381.1z"/>
			<path fill="#434850" d="M809.7,375c-1,1.3-2.8,1.6-4.101,0.7c-1.3-1-1.6-2.8-0.699-4.101c1-1.3,2.8-1.6,4.1-0.699
				C810.4,371.8,810.7,373.7,809.7,375z"/>
			<path fill="#434850" d="M802.5,370c-0.7,1.5-2.5,2-4,1.3s-2-2.5-1.3-4s2.5-2,4-1.3C802.7,366.8,803.2,368.6,802.5,370z"/>
			<path fill="#434850" d="M794.6,366.3c-0.5,1.601-2.199,2.4-3.699,1.9c-1.601-0.5-2.4-2.2-1.9-3.7c0.5-1.6,2.2-2.4,3.7-1.9
				C794.2,363,795.1,364.7,794.6,366.3z"/>
			<path fill="#434850" d="M786.2,363.8c-0.3,1.601-1.8,2.7-3.4,2.5c-1.6-0.3-2.7-1.8-2.5-3.399c0.3-1.601,1.8-2.7,3.4-2.5
				C785.3,360.6,786.4,362.1,786.2,363.8z"/>
			<path fill="#434850" d="M777.4,418.9c-0.301,1.6-1.801,2.699-3.4,2.5c-1.6-0.301-2.7-1.801-2.5-3.4c0.3-1.6,1.8-2.7,3.4-2.5
				C776.6,415.8,777.7,417.3,777.4,418.9z"/>
		</g>
		<g>
			<line fill="none" stroke="#434850" stroke-width="0.5" stroke-miterlimit="10" x1="774.6" y1="418.5" x2="774.6" y2="374.2"/>
			<line fill="none" stroke="#434850" stroke-width="0.5" stroke-miterlimit="10" x1="774.6" y1="418.5" x2="765.4" y2="375.2"/>
			<line fill="none" stroke="#434850" stroke-width="0.5" stroke-miterlimit="10" x1="774.6" y1="418.5" x2="756.6" y2="378.1"/>
			<line fill="none" stroke="#434850" stroke-width="0.5" stroke-miterlimit="10" x1="774.6" y1="418.5" x2="748.6" y2="382.7"/>
			<line fill="none" stroke="#434850" stroke-width="0.5" stroke-miterlimit="10" x1="774.6" y1="418.5" x2="741.7" y2="388.9"/>
			<line fill="none" stroke="#434850" stroke-width="0.5" stroke-miterlimit="10" x1="774.6" y1="418.5" x2="736.3" y2="396.4"/>
			<line fill="none" stroke="#434850" stroke-width="0.5" stroke-miterlimit="10" x1="774.6" y1="418.5" x2="732.5" y2="404.8"/>
			<line fill="none" stroke="#434850" stroke-width="0.5" stroke-miterlimit="10" x1="774.6" y1="418.5" x2="730.6" y2="413.8"/>
			<line fill="none" stroke="#434850" stroke-width="0.5" stroke-miterlimit="10" x1="774.6" y1="418.5" x2="730.6" y2="423.1"/>
			<line fill="none" stroke="#434850" stroke-width="0.5" stroke-miterlimit="10" x1="774.6" y1="418.5" x2="732.5" y2="432.1"/>
			<line fill="none" stroke="#434850" stroke-width="0.5" stroke-miterlimit="10" x1="774.6" y1="418.5" x2="736.3" y2="440.6"/>
			<line fill="none" stroke="#434850" stroke-width="0.5" stroke-miterlimit="10" x1="774.6" y1="418.5" x2="741.7" y2="448.1"/>
			<line fill="none" stroke="#434850" stroke-width="0.5" stroke-miterlimit="10" x1="774.6" y1="418.5" x2="748.6" y2="454.3"/>
			<line fill="none" stroke="#434850" stroke-width="0.5" stroke-miterlimit="10" x1="774.6" y1="418.5" x2="756.6" y2="458.9"/>
			<line fill="none" stroke="#434850" stroke-width="0.5" stroke-miterlimit="10" x1="774.6" y1="418.5" x2="765.4" y2="461.7"/>
			<line fill="none" stroke="#434850" stroke-width="0.5" stroke-miterlimit="10" x1="774.6" y1="418.5" x2="774.6" y2="462.7"/>
			<line fill="none" stroke="#434850" stroke-width="0.5" stroke-miterlimit="10" x1="774.6" y1="418.5" x2="783.8" y2="461.7"/>
			<line fill="none" stroke="#434850" stroke-width="0.5" stroke-miterlimit="10" x1="774.6" y1="418.5" x2="792.6" y2="458.9"/>
			<line fill="none" stroke="#434850" stroke-width="0.5" stroke-miterlimit="10" x1="774.6" y1="418.5" x2="800.6" y2="454.3"/>
			<line fill="none" stroke="#434850" stroke-width="0.5" stroke-miterlimit="10" x1="774.6" y1="418.5" x2="807.5" y2="448.1"/>
			<line fill="none" stroke="#434850" stroke-width="0.5" stroke-miterlimit="10" x1="774.6" y1="418.5" x2="812.9" y2="440.6"/>
			<line fill="none" stroke="#434850" stroke-width="0.5" stroke-miterlimit="10" x1="774.6" y1="418.5" x2="816.7" y2="432.1"/>
			<line fill="none" stroke="#434850" stroke-width="0.5" stroke-miterlimit="10" x1="774.6" y1="418.5" x2="818.6" y2="423.1"/>
			<line fill="none" stroke="#434850" stroke-width="0.5" stroke-miterlimit="10" x1="774.6" y1="418.5" x2="818.6" y2="413.9"/>
			<line fill="none" stroke="#434850" stroke-width="0.5" stroke-miterlimit="10" x1="774.6" y1="418.5" x2="816.7" y2="404.8"/>
			<line fill="none" stroke="#434850" stroke-width="0.5" stroke-miterlimit="10" x1="774.6" y1="418.5" x2="812.9" y2="396.4"/>
			<line fill="none" stroke="#434850" stroke-width="0.5" stroke-miterlimit="10" x1="774.6" y1="418.5" x2="807.5" y2="388.9"/>
			<line fill="none" stroke="#434850" stroke-width="0.5" stroke-miterlimit="10" x1="774.6" y1="418.5" x2="800.6" y2="382.7"/>
			<line fill="none" stroke="#434850" stroke-width="0.5" stroke-miterlimit="10" x1="774.6" y1="418.5" x2="792.6" y2="378.1"/>
			<line fill="none" stroke="#434850" stroke-width="0.5" stroke-miterlimit="10" x1="774.6" y1="418.5" x2="783.8" y2="375.2"/>
		</g>
		
			<animateTransform  fill="remove" type="rotate" restart="always" calcMode="linear" additive="replace" accumulate="none" repeatCount="indefinite" dur="20s" to="360 774.5 418.5" from="0 774.5 418.5" attributeName="transform" attributeType="xml">
			</animateTransform>
	</g>
</g>
<g id="Layer_3">
</g>
<g id="Creative_Commons_License" display="none">
</g>
<g id="EASY_AND_CHEAP">
</g>
<g id="LOCAL_GUIDES">
	<path id="path3176" fill="#434850" d="M172.4,491.4v-76.7h1.7v-18.9h-3.2v-3.1h-1.5l-4.4-6.4V380.4l-4.7-13.301v-2.5v2.5
		l-5.1,13.301v5.899l-4.4,6.4h-1.5v3.1H146v18.9h1.7v76.7H172.4L172.4,491.4z"/>
	<path id="path3178" fill="#F7EFBF" d="M167,404.8c0,3.7-3.4,6.7-7.5,6.7s-7.5-3-7.5-6.7s3.4-6.7,7.5-6.7
		C163.6,398.2,167,401.2,167,404.8z"/>
</g>
<g id="Layer_6">
	<g>
		<rect x="1444.3" y="389.3" fill="#434850" width="35.5" height="101.7"/>
		<rect x="1376.6" y="389.3" fill="#434850" width="59.101" height="101.7"/>
		<polygon fill="#434850" points="1479.8,389.3 1462,368.1 1444.3,389.3 		"/>
		<rect x="1454.7" y="405.9" fill="#F7EFBF" width="14.8" height="25.899"/>
		<rect x="1454.7" y="465.1" fill="#F7EFBF" width="14.8" height="25.9"/>
		<rect x="1398.7" y="470.8" fill="#F7EFBF" width="14.8" height="20.2"/>
		<line fill="none" stroke="#434850" stroke-miterlimit="10" x1="1462" y1="405.9" x2="1462" y2="431.7"/>
		<line fill="none" stroke="#434850" stroke-miterlimit="10" x1="1475" y1="418.8" x2="1449.1" y2="418.8"/>
		<rect x="1411.7" y="399.4" fill="#F7EFBF" width="14.8" height="25.899"/>
		<line fill="none" stroke="#434850" stroke-miterlimit="10" x1="1419" y1="399.4" x2="1419" y2="425.2"/>
		<line fill="none" stroke="#434850" stroke-miterlimit="10" x1="1432" y1="412.3" x2="1406.1" y2="412.3"/>
		<rect x="1384.6" y="399.4" fill="#F7EFBF" width="14.801" height="25.899"/>
		<line fill="none" stroke="#434850" stroke-miterlimit="10" x1="1392" y1="399.4" x2="1392" y2="425.2"/>
		<line fill="none" stroke="#434850" stroke-miterlimit="10" x1="1404.9" y1="412.3" x2="1379" y2="412.3"/>
		<rect x="1384.6" y="436.4" fill="#F7EFBF" width="14.801" height="25.899"/>
		<line fill="none" stroke="#434850" stroke-miterlimit="10" x1="1392" y1="436.4" x2="1392" y2="462.2"/>
		<line fill="none" stroke="#434850" stroke-miterlimit="10" x1="1404.9" y1="449.3" x2="1379" y2="449.3"/>
		<rect x="1411.7" y="436.4" fill="#F7EFBF" width="14.8" height="25.899"/>
		<line fill="none" stroke="#434850" stroke-miterlimit="10" x1="1419" y1="436.4" x2="1419" y2="462.2"/>
		<line fill="none" stroke="#434850" stroke-miterlimit="10" x1="1432" y1="449.3" x2="1406.1" y2="449.3"/>
		<rect x="1491.1" y="423.7" fill="#434850" width="2.4" height="69.5"/>
		<circle fill="#434850" cx="1496.7" cy="418.9" r="9.2"/>
		<circle fill="#434850" cx="1494.4" cy="408.3" r="6"/>
		<circle fill="#434850" cx="1491.2" cy="421.6" r="6.7"/>
		<circle fill="#434850" cx="1478.9" cy="416.8" r="9.5"/>
		<circle fill="#434850" cx="1486.6" cy="410.1" r="7.7"/>
		<circle fill="#434850" cx="1489.5" cy="403.9" r="6.1"/>
		<circle fill="#434850" cx="1480.4" cy="407.6" r="6.3"/>
		<circle fill="#434850" cx="1499.1" cy="416.9" r="6.8"/>
		<circle fill="#434850" cx="1481.9" cy="421.5" r="4.7"/>
		<circle fill="#434850" cx="1482.7" cy="422.7" r="6.5"/>
		<circle fill="#434850" cx="1496.7" cy="409.7" r="11.4"/>
		<circle fill="#434850" cx="1485.3" cy="422.1" r="11.4"/>
		<circle fill="#434850" cx="1491.2" cy="421.7" r="11.4"/>
		<circle fill="#434850" cx="1496.7" cy="423.7" r="11.4"/>
		<rect x="977.5" y="463.6" fill="#F7EFBF" width="25.2" height="26.7"/>
		<polygon fill="#434850" points="957.2,403.4 957.2,490.3 977.5,490.3 977.5,463.6 1002.7,463.6 1002.7,490.3 1023.8,490.3 
			1023.8,403.4 		"/>
		<path fill="#434850" d="M998.7,473.4c-0.7-4-4.2-7.101-8.5-7.101c-4.2,0-7.7,3.101-8.5,7.101h-0.2V490.3h17.2V473.4L998.7,473.4z"
			/>
		<rect x="1062.6" y="463.6" fill="#F7EFBF" width="25.2" height="26.7"/>
		<polygon fill="#434850" points="1027.4,403.4 1027.4,490.3 1062.6,490.3 1062.6,463.6 1087.8,463.6 1087.8,490.3 1124,490.3 
			1124,403.4 		"/>
		<path fill="#434850" d="M1083.9,473.4c-0.7-4-4.2-7.101-8.5-7.101c-4.2,0-7.7,3.101-8.5,7.101h-0.2V490.3h17.2V473.4L1083.9,473.4
			z"/>
		<polygon fill="#434850" points="992.7,401.9 987.6,401.9 957.2,416.3 1023.8,416.3 		"/>
		<line fill="none" stroke="#F7EFBF" stroke-width="0.75" stroke-miterlimit="10" x1="957.2" y1="459.2" x2="1023.8" y2="459.2"/>
		<line fill="none" stroke="#F7EFBF" stroke-width="0.75" stroke-miterlimit="10" x1="1027.4" y1="459.2" x2="1124" y2="459.2"/>
		<rect x="962" y="423.9" fill="#F7EFBF" width="1.1" height="29.199"/>
		<rect x="968" y="423.9" fill="#F7EFBF" width="1.1" height="29.199"/>
		<rect x="987" y="423.9" fill="#F7EFBF" width="1.1" height="29.199"/>
		<rect x="993" y="423.9" fill="#F7EFBF" width="1.1" height="29.199"/>
		<rect x="1012.4" y="423.9" fill="#F7EFBF" width="1.1" height="29.199"/>
		<rect x="1018.4" y="423.9" fill="#F7EFBF" width="1.1" height="29.199"/>
		<rect x="1031.2" y="406.4" fill="#F7EFBF" width="1.5" height="11.6"/>
		<rect x="1036.3" y="406.4" fill="#F7EFBF" width="1.5" height="11.6"/>
		<rect x="1041.4" y="406.4" fill="#F7EFBF" width="1.5" height="11.6"/>
		<rect x="1046.6" y="406.4" fill="#F7EFBF" width="1.5" height="11.6"/>
		<rect x="1051.7" y="406.4" fill="#F7EFBF" width="1.5" height="11.6"/>
		<rect x="1056.8" y="406.4" fill="#F7EFBF" width="1.5" height="11.6"/>
		<rect x="1062" y="406.4" fill="#F7EFBF" width="1.5" height="11.6"/>
		<rect x="1067.1" y="406.4" fill="#F7EFBF" width="1.5" height="11.6"/>
		<rect x="1072.2" y="406.4" fill="#F7EFBF" width="1.5" height="11.6"/>
		<rect x="1077.4" y="406.4" fill="#F7EFBF" width="1.5" height="11.6"/>
		<rect x="1082.5" y="406.4" fill="#F7EFBF" width="1.5" height="11.6"/>
		<rect x="1087.6" y="406.4" fill="#F7EFBF" width="1.5" height="11.6"/>
		<rect x="1092.8" y="406.4" fill="#F7EFBF" width="1.5" height="11.6"/>
		<rect x="1097.9" y="406.4" fill="#F7EFBF" width="1.5" height="11.6"/>
		<rect x="1103.1" y="406.4" fill="#F7EFBF" width="1.5" height="11.6"/>
		<rect x="1108.2" y="406.4" fill="#F7EFBF" width="1.5" height="11.6"/>
		<rect x="1113.3" y="406.4" fill="#F7EFBF" width="1.5" height="11.6"/>
		<rect x="1118.5" y="406.4" fill="#F7EFBF" width="1.5" height="11.6"/>
		<rect x="961.5" y="455.1" fill="#F7EFBF" width="2" height="2"/>
		<rect x="967.6" y="455.1" fill="#F7EFBF" width="2" height="2"/>
		<rect x="986.5" y="455.1" fill="#F7EFBF" width="2" height="2"/>
		<rect x="992.6" y="455.1" fill="#F7EFBF" width="2" height="2"/>
		<rect x="1012" y="455.1" fill="#F7EFBF" width="2" height="2"/>
		<rect x="1018.1" y="455.1" fill="#F7EFBF" width="2" height="2"/>
		<rect x="961.5" y="420" fill="#F7EFBF" width="2" height="2"/>
		<rect x="967.6" y="420" fill="#F7EFBF" width="2" height="2"/>
		<rect x="986.5" y="420" fill="#F7EFBF" width="2" height="2"/>
		<rect x="992.6" y="420" fill="#F7EFBF" width="2" height="2"/>
		<rect x="1012" y="420" fill="#F7EFBF" width="2" height="2"/>
		<rect x="1018.1" y="420" fill="#F7EFBF" width="2" height="2"/>
		<polyline fill="none" stroke="#F7EFBF" stroke-width="0.5" stroke-miterlimit="10" points="984,403.4 959,415.9 1021.2,416.3 
			996,403.4 		"/>
		<line fill="none" stroke="#F7EFBF" stroke-width="0.5" stroke-miterlimit="10" x1="957.2" y1="418" x2="1023.8" y2="418"/>
		<line fill="none" stroke="#F7EFBF" stroke-width="0.5" stroke-miterlimit="10" x1="1027.4" y1="421.3" x2="1124" y2="421.3"/>
		<rect x="1147.9" y="463.6" fill="#F7EFBF" width="25.199" height="26.7"/>
		<polygon fill="#434850" points="1127.6,403.4 1127.6,490.3 1147.9,490.3 1147.9,463.6 1173.1,463.6 1173.1,490.3 1194.2,490.3 
			1194.2,403.4 		"/>
		<path fill="#434850" d="M1169.1,473.4c-0.699-4-4.199-7.101-8.5-7.101c-4.3,0-7.699,3.101-8.5,7.101h-0.199V490.3h17.199V473.4
			L1169.1,473.4z"/>
		<polygon fill="#434850" points="1163.1,401.9 1158,401.9 1127.6,416.3 1194.2,416.3 		"/>
		<line fill="none" stroke="#F7EFBF" stroke-width="0.75" stroke-miterlimit="10" x1="1127.6" y1="459.2" x2="1194.2" y2="459.2"/>
		<rect x="1132.4" y="423.9" fill="#F7EFBF" width="1.1" height="29.199"/>
		<rect x="1138.4" y="423.9" fill="#F7EFBF" width="1.1" height="29.199"/>
		<rect x="1157.4" y="423.9" fill="#F7EFBF" width="1.1" height="29.199"/>
		<rect x="1163.4" y="423.9" fill="#F7EFBF" width="1.1" height="29.199"/>
		<rect x="1182.8" y="423.9" fill="#F7EFBF" width="1.101" height="29.199"/>
		<rect x="1188.8" y="423.9" fill="#F7EFBF" width="1.101" height="29.199"/>
		<rect x="1131.9" y="455.1" fill="#F7EFBF" width="2" height="2"/>
		<rect x="1138" y="455.1" fill="#F7EFBF" width="2" height="2"/>
		<rect x="1156.9" y="455.1" fill="#F7EFBF" width="2" height="2"/>
		<rect x="1163" y="455.1" fill="#F7EFBF" width="2" height="2"/>
		<rect x="1182.4" y="455.1" fill="#F7EFBF" width="2" height="2"/>
		<rect x="1188.5" y="455.1" fill="#F7EFBF" width="2" height="2"/>
		<rect x="1131.9" y="420" fill="#F7EFBF" width="2" height="2"/>
		<rect x="1138" y="420" fill="#F7EFBF" width="2" height="2"/>
		<rect x="1156.9" y="420" fill="#F7EFBF" width="2" height="2"/>
		<rect x="1163" y="420" fill="#F7EFBF" width="2" height="2"/>
		<rect x="1182.4" y="420" fill="#F7EFBF" width="2" height="2"/>
		<rect x="1188.5" y="420" fill="#F7EFBF" width="2" height="2"/>
		<polyline fill="none" stroke="#F7EFBF" stroke-width="0.5" stroke-miterlimit="10" points="1154.4,403.4 1129.4,415.9 
			1191.6,416.3 1166.4,403.4 		"/>
		<line fill="none" stroke="#F7EFBF" stroke-width="0.5" stroke-miterlimit="10" x1="1127.6" y1="418" x2="1194.2" y2="418"/>
		<rect x="1319.7" y="463.6" fill="#F7EFBF" width="25.2" height="26.7"/>
		<polygon fill="#434850" points="1299.4,403.4 1299.4,490.3 1319.7,490.3 1319.7,463.6 1344.9,463.6 1344.9,490.3 1366.1,490.3 
			1366.1,403.4 		"/>
		<path fill="#434850" d="M1340.9,473.4c-0.7-4-4.2-7.101-8.5-7.101c-4.2,0-7.7,3.101-8.5,7.101h-0.2V490.3h17.2V473.4L1340.9,473.4
			z"/>
		<polygon fill="#434850" points="1335,401.9 1329.8,401.9 1299.4,416.3 1366.1,416.3 		"/>
		<line fill="none" stroke="#F7EFBF" stroke-width="0.75" stroke-miterlimit="10" x1="1299.4" y1="459.2" x2="1366.1" y2="459.2"/>
		<rect x="1304.3" y="423.9" fill="#F7EFBF" width="1.101" height="29.199"/>
		<rect x="1310.3" y="423.9" fill="#F7EFBF" width="1.101" height="29.199"/>
		<rect x="1329.2" y="423.9" fill="#F7EFBF" width="1.1" height="29.199"/>
		<rect x="1335.2" y="423.9" fill="#F7EFBF" width="1.1" height="29.199"/>
		<rect x="1354.7" y="423.9" fill="#F7EFBF" width="1.1" height="29.199"/>
		<rect x="1360.7" y="423.9" fill="#F7EFBF" width="1.1" height="29.199"/>
		<rect x="1303.7" y="455.1" fill="#F7EFBF" width="2" height="2"/>
		<rect x="1309.8" y="455.1" fill="#F7EFBF" width="2" height="2"/>
		<rect x="1328.7" y="455.1" fill="#F7EFBF" width="2" height="2"/>
		<rect x="1334.8" y="455.1" fill="#F7EFBF" width="2" height="2"/>
		<rect x="1354.2" y="455.1" fill="#F7EFBF" width="2" height="2"/>
		<rect x="1360.3" y="455.1" fill="#F7EFBF" width="2" height="2"/>
		<rect x="1303.7" y="420" fill="#F7EFBF" width="2" height="2"/>
		<rect x="1309.8" y="420" fill="#F7EFBF" width="2" height="2"/>
		<rect x="1328.7" y="420" fill="#F7EFBF" width="2" height="2"/>
		<rect x="1334.8" y="420" fill="#F7EFBF" width="2" height="2"/>
		<rect x="1354.2" y="420" fill="#F7EFBF" width="2" height="2"/>
		<rect x="1360.3" y="420" fill="#F7EFBF" width="2" height="2"/>
		<polyline fill="none" stroke="#F7EFBF" stroke-width="0.5" stroke-miterlimit="10" points="1326.3,403.4 1301.3,415.9 
			1363.4,416.3 1338.3,403.4 		"/>
		<line fill="none" stroke="#F7EFBF" stroke-width="0.5" stroke-miterlimit="10" x1="1299.4" y1="418" x2="1366.1" y2="418"/>
		<rect x="1032.4" y="429.5" fill="#F7EFBF" width="6.199" height="11"/>
		<rect x="1032.4" y="424.4" fill="#F7EFBF" width="6.199" height="2.1"/>
		<rect x="1052.6" y="424.4" fill="#F7EFBF" width="6.2" height="2.1"/>
		<rect x="1072.9" y="424.4" fill="#F7EFBF" width="6.199" height="2.1"/>
		<rect x="1093.1" y="424.4" fill="#F7EFBF" width="6.2" height="2.1"/>
		<rect x="1113.3" y="424.4" fill="#F7EFBF" width="6.2" height="2.1"/>
		<rect x="1032.4" y="445.6" fill="#F7EFBF" width="6.199" height="11"/>
		<g>
			<rect x="1052.6" y="429.5" fill="#F7EFBF" width="6.2" height="11"/>
			<rect x="1052.6" y="445.6" fill="#F7EFBF" width="6.2" height="11"/>
		</g>
		<g>
			<rect x="1072.9" y="429.5" fill="#F7EFBF" width="6.199" height="11"/>
			<rect x="1072.9" y="445.6" fill="#F7EFBF" width="6.199" height="11"/>
		</g>
		<g>
			<rect x="1093.1" y="429.5" fill="#F7EFBF" width="6.2" height="11"/>
			<rect x="1093.1" y="445.6" fill="#F7EFBF" width="6.2" height="11"/>
		</g>
		<g>
			<rect x="1113.3" y="429.5" fill="#F7EFBF" width="6.2" height="11"/>
			<rect x="1113.3" y="445.6" fill="#F7EFBF" width="6.2" height="11"/>
		</g>
		<rect x="1233.6" y="463.6" fill="#F7EFBF" width="25.2" height="26.7"/>
		<polygon fill="#434850" points="1198.4,403.4 1198.4,490.3 1233.6,490.3 1233.6,463.6 1258.8,463.6 1258.8,490.3 1295,490.3 
			1295,403.4 		"/>
		<path fill="#434850" d="M1254.9,473.4c-0.7-4-4.2-7.101-8.5-7.101c-4.301,0-7.7,3.101-8.5,7.101h-0.2V490.3h17.2V473.4
			L1254.9,473.4z"/>
		<line fill="none" stroke="#F7EFBF" stroke-width="0.75" stroke-miterlimit="10" x1="1198.4" y1="459.2" x2="1295" y2="459.2"/>
		<rect x="1202.2" y="406.4" fill="#F7EFBF" width="1.5" height="11.6"/>
		<rect x="1207.3" y="406.4" fill="#F7EFBF" width="1.5" height="11.6"/>
		<rect x="1212.5" y="406.4" fill="#F7EFBF" width="1.5" height="11.6"/>
		<rect x="1217.6" y="406.4" fill="#F7EFBF" width="1.5" height="11.6"/>
		<rect x="1222.7" y="406.4" fill="#F7EFBF" width="1.5" height="11.6"/>
		<rect x="1227.9" y="406.4" fill="#F7EFBF" width="1.5" height="11.6"/>
		<rect x="1233" y="406.4" fill="#F7EFBF" width="1.5" height="11.6"/>
		<rect x="1238.1" y="406.4" fill="#F7EFBF" width="1.5" height="11.6"/>
		<rect x="1243.3" y="406.4" fill="#F7EFBF" width="1.5" height="11.6"/>
		<rect x="1248.4" y="406.4" fill="#F7EFBF" width="1.5" height="11.6"/>
		<rect x="1253.5" y="406.4" fill="#F7EFBF" width="1.5" height="11.6"/>
		<rect x="1258.7" y="406.4" fill="#F7EFBF" width="1.5" height="11.6"/>
		<rect x="1263.8" y="406.4" fill="#F7EFBF" width="1.5" height="11.6"/>
		<rect x="1268.9" y="406.4" fill="#F7EFBF" width="1.5" height="11.6"/>
		<rect x="1274.1" y="406.4" fill="#F7EFBF" width="1.5" height="11.6"/>
		<rect x="1279.2" y="406.4" fill="#F7EFBF" width="1.5" height="11.6"/>
		<rect x="1284.3" y="406.4" fill="#F7EFBF" width="1.5" height="11.6"/>
		<rect x="1289.5" y="406.4" fill="#F7EFBF" width="1.5" height="11.6"/>
		<line fill="none" stroke="#F7EFBF" stroke-width="0.5" stroke-miterlimit="10" x1="1198.4" y1="421.3" x2="1295" y2="421.3"/>
		<rect x="1203.4" y="429.5" fill="#F7EFBF" width="6.199" height="11"/>
		<rect x="1203.4" y="424.4" fill="#F7EFBF" width="6.199" height="2.1"/>
		<rect x="1223.7" y="424.4" fill="#F7EFBF" width="6.2" height="2.1"/>
		<rect x="1243.9" y="424.4" fill="#F7EFBF" width="6.199" height="2.1"/>
		<rect x="1264.1" y="424.4" fill="#F7EFBF" width="6.2" height="2.1"/>
		<rect x="1284.4" y="424.4" fill="#F7EFBF" width="6.199" height="2.1"/>
		<rect x="1203.4" y="445.6" fill="#F7EFBF" width="6.199" height="11"/>
		<g>
			<rect x="1223.7" y="429.5" fill="#F7EFBF" width="6.2" height="11"/>
			<rect x="1223.7" y="445.6" fill="#F7EFBF" width="6.2" height="11"/>
		</g>
		<g>
			<rect x="1243.9" y="429.5" fill="#F7EFBF" width="6.199" height="11"/>
			<rect x="1243.9" y="445.6" fill="#F7EFBF" width="6.199" height="11"/>
		</g>
		<g>
			<rect x="1264.1" y="429.5" fill="#F7EFBF" width="6.2" height="11"/>
			<rect x="1264.1" y="445.6" fill="#F7EFBF" width="6.2" height="11"/>
		</g>
		<g>
			<rect x="1284.4" y="429.5" fill="#F7EFBF" width="6.199" height="11"/>
			<rect x="1284.4" y="445.6" fill="#F7EFBF" width="6.199" height="11"/>
		</g>
		<rect x="1160.5" y="391.2" fill="#434850" width="0.5" height="10.7"/>
		<path fill="#434850" d="M1160.5,391.2c0,2.1,6.2,0.2,7.3,0.8c5.5,3-0.2,4.5,3.101,8c0.1,0.1-9.9-0.2-10.2-3.5
			C1160.5,394.8,1160.5,391.3,1160.5,391.2z"/>
	</g>
</g>
<g id="New_house">
	<rect x="865.7" y="436.7" fill="#434850" width="1.5" height="54"/>
	<circle fill="#434850" cx="863.8" cy="433.7" r="5.7"/>
	<circle fill="#434850" cx="865.2" cy="427.2" r="3.7"/>
	<circle fill="#434850" cx="867.1" cy="435.4" r="4.2"/>
	<circle fill="#434850" cx="874.7" cy="433" r="5.8"/>
	<circle fill="#434850" cx="870" cy="428.2" r="4.8"/>
	<circle fill="#434850" cx="868.2" cy="424.5" r="3.8"/>
	<circle fill="#434850" cx="873.8" cy="427.3" r="3.9"/>
	<circle fill="#434850" cx="862.3" cy="432.5" r="4.2"/>
	<circle fill="#434850" cx="872.9" cy="435.9" r="2.9"/>
	<circle fill="#434850" cx="872.4" cy="436.7" r="4"/>
	<circle fill="#434850" cx="861.5" cy="430.9" r="7"/>
	<circle fill="#434850" cx="870.8" cy="439.5" r="7"/>
	<circle fill="#434850" cx="867.1" cy="435.4" r="7"/>
	<circle fill="#434850" cx="860.1" cy="438.8" r="7"/>
	<rect x="886.6" y="458.8" fill="#434850" width="58.2" height="31.7"/>
	<polygon fill="#434850" points="887.3,438 945.5,438 950.8,460.2 880.6,460.2 	"/>
	<rect x="892.9" y="477.2" fill="#F7EFBF" width="45.5" height="13.3"/>
	<rect x="931.7" y="466.4" fill="#F7EFBF" width="5.5" height="5.8"/>
	<rect x="918.8" y="466.6" fill="#F7EFBF" width="5.5" height="5.801"/>
	<rect x="905.9" y="466.6" fill="#F7EFBF" width="5.5" height="5.801"/>
	<rect x="892.9" y="466.6" fill="#F7EFBF" width="5.5" height="5.801"/>
</g>
<g id="bus">
	<path fill="#434850" d="M857.8,464.6c0,0-3.399-19.199,9.8-21.1h77.2c0,0,7.9,1.9,7.5,11.3v32h-19.7
		c0.101-0.399,0.101-0.7,0.101-1.1c0-4-3.2-7.2-7.2-7.2s-7.2,3.2-7.2,7.2c0,0.399,0,0.8,0.101,1.1h-42.9c0.1-0.399,0.1-0.7,0.1-1.1
		c0-4-3.2-7.2-7.2-7.2s-7.199,3.2-7.199,7.2c0,0.399,0,0.8,0.1,1.1h-3.7v-10.5l3.8-2.3v-8.7L857.8,464.6z"/>
	<rect x="934.8" y="448.5" fill="#F7EFBF" width="9.601" height="5.4"/>
	<rect x="918.2" y="448.5" fill="#F7EFBF" width="9.6" height="5.4"/>
	<rect x="901.7" y="448.5" fill="#F7EFBF" width="9.6" height="5.4"/>
	<rect x="885.1" y="448.5" fill="#F7EFBF" width="9.601" height="5.4"/>
	<rect x="918.2" y="467.2" fill="#F7EFBF" width="9.6" height="5.399"/>
	<rect x="901.7" y="467.2" fill="#F7EFBF" width="9.6" height="5.399"/>
	<rect x="885.1" y="467.2" fill="#F7EFBF" width="9.601" height="5.399"/>
	<rect x="864.2" y="463.7" fill="#F7EFBF" width="12.8" height="9"/>
	<rect x="937.1" y="462.7" fill="#F7EFBF" width="12.801" height="20.7"/>
	<rect x="866.9" y="448.5" fill="#F7EFBF" width="9.6" height="5.4"/>
	<circle fill="#434850" cx="925.6" cy="485.7" r="5.3"/>
	<path fill="#434850" d="M863.3,485.7c0,2.899,2.4,5.3,5.3,5.3c2.9,0,5.301-2.4,5.301-5.3c0-2.9-2.4-5.3-5.301-5.3
		C865.6,480.4,863.3,482.8,863.3,485.7z"/>
	
		<animateTransform  fill="remove" type="translate" restart="always" calcMode="linear" additive="replace" accumulate="none" repeatCount="indefinite" dur="25s" to="-1000,0" from="1000,0" attributeName="transform" attributeType="xml">
		</animateTransform>
</g>
</svg>
